v 0.0 0.0 0.0
v 1.0 0.0 0.0
v 2.0 0.0 0.0
v 3.0 0.0 0.0
v 4.0 0.0 0.0
v 0.0 0.0 1.0
v 1.0 0.0 1.0
v 2.0 0.0 1.0
v 3.0 0.0 1.0
v 4.0 0.0 1.0
v 0.0 0.0 2.0
v 1.0 0.0 2.0
v 2.0 0.0 2.0
v 3.0 0.0 2.0
v 4.0 0.0 2.0
v 0.0 0.0 3.0
v 1.0 0.0 3.0
v 2.0 0.0 3.0
v 3.0 0.0 3.0
v 4.0 0.0 3.0
v 0.0 0.0 4.0
v 1.0 0.0 4.0
v 2.0 0.0 4.0
v 3.0 0.0 4.0
v 4.0 0.0 4.0
v 0.0 0.0 0.0
v 1.0 0.0 0.0
v 2.0 0.0 0.0
v 3.0 0.0 0.0
v 4.0 0.0 0.0
v 0.0 0.0 1.0
v 1.0 0.0 1.0
v 2.0 0.0 1.0
v 3.0 0.0 1.0
v 4.0 0.0 1.0
v 0.0 0.0 2.0
v 1.0 0.0 2.0
v 2.0 0.0 2.0
v 3.0 0.0 2.0
v 4.0 0.0 2.0
v 0.0 0.0 3.0
v 1.0 0.0 3.0
v 2.0 0.0 3.0
v 3.0 0.0 3.0
v 4.0 0.0 3.0
v 0.0 0.0 4.0
v 1.0 0.0 4.0
v 2.0 0.0 4.0
v 3.0 0.0 4.0
v 4.0 0.0 4.0
vt 0.0 0.0
vt 0.25 0.0
vt 0.5 0.0
vt 0.75 0.0
vt 1.0 0.0
vt 0.0 0.25
vt 0.25 0.25
vt 0.5 0.25
vt 0.75 0.25
vt 1.0 0.25
vt 0.0 0.5
vt 0.25 0.5
vt 0.5 0.5
vt 0.75 0.5
vt 1.0 0.5
vt 0.0 0.75
vt 0.25 0.75
vt 0.5 0.75
vt 0.75 0.75
vt 1.0 0.75
vt 0.0 1.0
vt 0.25 1.0
vt 0.5 1.0
vt 0.75 1.0
vt 1.0 1.0
vt 0.0 0.0
vt 0.25 0.0
vt 0.5 0.0
vt 0.75 0.0
vt 1.0 0.0
vt 0.0 0.25
vt 0.25 0.25
vt 0.5 0.25
vt 0.75 0.25
vt 1.0 0.25
vt 0.0 0.5
vt 0.25 0.5
vt 0.5 0.5
vt 0.75 0.5
vt 1.0 0.5
vt 0.0 0.75
vt 0.25 0.75
vt 0.5 0.75
vt 0.75 0.75
vt 1.0 0.75
vt 0.0 1.0
vt 0.25 1.0
vt 0.5 1.0
vt 0.75 1.0
vt 1.0 1.0
vn 0.0 1.0 0.0
vn 0.0 -1.0 0.0
f 1/1/1 6/6/1 2/2/1
f 2/2/1 6/6/1 7/7/1
f 2/2/1 7/7/1 3/3/1
f 3/3/1 7/7/1 8/8/1
f 3/3/1 8/8/1 4/4/1
f 4/4/1 8/8/1 9/9/1
f 4/4/1 9/9/1 5/5/1
f 5/5/1 9/9/1 10/10/1
f 6/6/1 11/11/1 7/7/1
f 7/7/1 11/11/1 12/12/1
f 7/7/1 12/12/1 8/8/1
f 8/8/1 12/12/1 13/13/1
f 8/8/1 13/13/1 9/9/1
f 9/9/1 13/13/1 14/14/1
f 9/9/1 14/14/1 10/10/1
f 10/10/1 14/14/1 15/15/1
f 11/11/1 16/16/1 12/12/1
f 12/12/1 16/16/1 17/17/1
f 12/12/1 17/17/1 13/13/1
f 13/13/1 17/17/1 18/18/1
f 13/13/1 18/18/1 14/14/1
f 14/14/1 18/18/1 19/19/1
f 14/14/1 19/19/1 15/15/1
f 15/15/1 19/19/1 20/20/1
f 16/16/1 21/21/1 17/17/1
f 17/17/1 21/21/1 22/22/1
f 17/17/1 22/22/1 18/18/1
f 18/18/1 22/22/1 23/23/1
f 18/18/1 23/23/1 19/19/1
f 19/19/1 23/23/1 24/24/1
f 19/19/1 24/24/1 20/20/1
f 20/20/1 24/24/1 25/25/1
f 26/26/2 27/27/2 31/31/2
f 27/27/2 32/32/2 31/31/2
f 27/27/2 28/28/2 32/32/2
f 28/28/2 33/33/2 32/32/2
f 28/28/2 29/29/2 33/33/2
f 29/29/2 34/34/2 33/33/2
f 29/29/2 30/30/2 34/34/2
f 30/30/2 35/35/2 34/34/2
f 31/31/2 32/32/2 36/36/2
f 32/32/2 37/37/2 36/36/2
f 32/32/2 33/33/2 37/37/2
f 33/33/2 38/38/2 37/37/2
f 33/33/2 34/34/2 38/38/2
f 34/34/2 39/39/2 38/38/2
f 34/34/2 35/35/2 39/39/2
f 35/35/2 40/40/2 39/39/2
f 36/36/2 37/37/2 41/41/2
f 37/37/2 42/42/2 41/41/2
f 37/37/2 38/38/2 42/42/2
f 38/38/2 43/43/2 42/42/2
f 38/38/2 39/39/2 43/43/2
f 39/39/2 44/44/2 43/43/2
f 39/39/2 40/40/2 44/44/2
f 40/40/2 45/45/2 44/44/2
f 41/41/2 42/42/2 46/46/2
f 42/42/2 47/47/2 46/46/2
f 42/42/2 43/43/2 47/47/2
f 43/43/2 48/48/2 47/47/2
f 43/43/2 44/44/2 48/48/2
f 44/44/2 49/49/2 48/48/2
f 44/44/2 45/45/2 49/49/2
f 45/45/2 50/50/2 49/49/2
